<?xml version="1.0" encoding="utf-8" standalone="no"?>
<!DOCTYPE svg PUBLIC "-//W3C//DTD SVG 1.1//EN"
  "http://www.w3.org/Graphics/SVG/1.1/DTD/svg11.dtd">
<svg xmlns:xlink="http://www.w3.org/1999/xlink" width="361.19952pt" height="145.467407pt" viewBox="0 0 361.19952 145.467407" xmlns="http://www.w3.org/2000/svg" version="1.1">
 <metadata>
  <rdf:RDF xmlns:dc="http://purl.org/dc/elements/1.1/" xmlns:cc="http://creativecommons.org/ns#" xmlns:rdf="http://www.w3.org/1999/02/22-rdf-syntax-ns#">
   <cc:Work>
    <dc:type rdf:resource="http://purl.org/dc/dcmitype/StillImage"/>
    <dc:date>2026-02-05T17:41:31.588269</dc:date>
    <dc:format>image/svg+xml</dc:format>
    <dc:creator>
     <cc:Agent>
      <dc:title>Matplotlib v3.10.6, https://matplotlib.org/</dc:title>
     </cc:Agent>
    </dc:creator>
   </cc:Work>
  </rdf:RDF>
 </metadata>
 <defs>
  <style type="text/css">*{stroke-linejoin: round; stroke-linecap: butt}</style>
 </defs>
 <g id="figure_1">
  <g id="patch_1">
   <path d="M 0 145.467407 
L 361.19952 145.467407 
L 361.19952 0 
L 0 0 
z
" style="fill: #ffffff"/>
  </g>
  <g id="axes_1">
   <g id="patch_2">
    <path d="M 27.543594 119.473813 
L 144.522813 119.473813 
L 144.522813 18.713976 
L 27.543594 18.713976 
z
" style="fill: #ffffff"/>
   </g>
   <g id="patch_3">
    <path d="M 32.860831 69.093894 
L 39.796358 69.093894 
L 39.796358 70.437359 
L 32.860831 70.437359 
z
" clip-path="url(#ped6cf3efa9)" style="fill: #054b7c"/>
   </g>
   <g id="patch_4">
    <path d="M 55.979254 69.093894 
L 62.914781 69.093894 
L 62.914781 53.084276 
L 55.979254 53.084276 
z
" clip-path="url(#ped6cf3efa9)" style="fill: #054b7c"/>
   </g>
   <g id="patch_5">
    <path d="M 79.097676 69.093894 
L 86.033203 69.093894 
L 86.033203 46.254998 
L 79.097676 46.254998 
z
" clip-path="url(#ped6cf3efa9)" style="fill: #054b7c"/>
   </g>
   <g id="patch_6">
    <path d="M 102.216099 69.093894 
L 109.151626 69.093894 
L 109.151626 46.366953 
L 102.216099 46.366953 
z
" clip-path="url(#ped6cf3efa9)" style="fill: #054b7c"/>
   </g>
   <g id="patch_7">
    <path d="M 125.334522 69.093894 
L 132.270049 69.093894 
L 132.270049 44.239801 
L 125.334522 44.239801 
z
" clip-path="url(#ped6cf3efa9)" style="fill: #054b7c"/>
   </g>
   <g id="patch_8">
    <path d="M 39.796358 69.093894 
L 46.731885 69.093894 
L 46.731885 79.337811 
L 39.796358 79.337811 
z
" clip-path="url(#ped6cf3efa9)" style="fill: #4395d0"/>
   </g>
   <g id="patch_9">
    <path d="M 62.914781 69.093894 
L 69.850307 69.093894 
L 69.850307 60.697241 
L 62.914781 60.697241 
z
" clip-path="url(#ped6cf3efa9)" style="fill: #4395d0"/>
   </g>
   <g id="patch_10">
    <path d="M 86.033203 69.093894 
L 92.96873 69.093894 
L 92.96873 54.539696 
L 86.033203 54.539696 
z
" clip-path="url(#ped6cf3efa9)" style="fill: #4395d0"/>
   </g>
   <g id="patch_11">
    <path d="M 109.151626 69.093894 
L 116.087153 69.093894 
L 116.087153 43.400136 
L 109.151626 43.400136 
z
" clip-path="url(#ped6cf3efa9)" style="fill: #4395d0"/>
   </g>
   <g id="patch_12">
    <path d="M 132.270049 69.093894 
L 139.205576 69.093894 
L 139.205576 47.262596 
L 132.270049 47.262596 
z
" clip-path="url(#ped6cf3efa9)" style="fill: #4395d0"/>
   </g>
   <g id="matplotlib.axis_1">
    <g id="xtick_1">
     <g id="line2d_1">
      <defs>
       <path id="m49a39c2d6d" d="M 0 0 
L 0 -4 
" style="stroke: #000000; stroke-width: 0.8"/>
      </defs>
      <g>
       <use xlink:href="#m49a39c2d6d" x="59.447017" y="119.473813" style="stroke: #000000; stroke-width: 0.8"/>
      </g>
     </g>
     <g id="text_1">
      <!-- 2 -->
      <g transform="translate(57.447017 128.271313) scale(0.08 -0.08)">
       <defs>
        <path id="TimesNewRomanPS-BoldMT-32" d="M 2650 0 
L 156 0 
L 156 69 
Q 1303 1434 1548 1906 
Q 1794 2378 1794 2828 
Q 1794 3156 1591 3373 
Q 1388 3591 1094 3591 
Q 613 3591 347 3109 
L 231 3150 
Q 400 3750 744 4037 
Q 1088 4325 1538 4325 
Q 1859 4325 2125 4175 
Q 2391 4025 2541 3764 
Q 2691 3503 2691 3275 
Q 2691 2859 2459 2431 
Q 2144 1853 1081 819 
L 1997 819 
Q 2334 819 2436 847 
Q 2538 875 2603 942 
Q 2669 1009 2775 1225 
L 2888 1225 
L 2650 0 
z
" transform="scale(0.015625)"/>
       </defs>
       <use xlink:href="#TimesNewRomanPS-BoldMT-32"/>
      </g>
     </g>
    </g>
    <g id="xtick_2">
     <g id="line2d_2">
      <g>
       <use xlink:href="#m49a39c2d6d" x="105.683863" y="119.473813" style="stroke: #000000; stroke-width: 0.8"/>
      </g>
     </g>
     <g id="text_2">
      <!-- 4 -->
      <g transform="translate(103.683863 128.271313) scale(0.08 -0.08)">
       <defs>
        <path id="TimesNewRomanPS-BoldMT-34" d="M 159 1597 
L 2172 4325 
L 2553 4325 
L 2553 1597 
L 2941 1597 
L 2941 950 
L 2553 950 
L 2553 0 
L 1694 0 
L 1694 950 
L 159 950 
L 159 1597 
z
M 463 1597 
L 1694 1597 
L 1694 3269 
L 463 1597 
z
" transform="scale(0.015625)"/>
       </defs>
       <use xlink:href="#TimesNewRomanPS-BoldMT-34"/>
      </g>
     </g>
    </g>
    <g id="text_3">
     <!-- Bins -->
     <g transform="translate(77.5275 139.94225) scale(0.09 -0.09)">
      <defs>
       <path id="TimesNewRomanPS-BoldMT-42" d="M 2847 2247 
Q 3450 2106 3694 1906 
Q 4044 1622 4044 1169 
Q 4044 691 3659 378 
Q 3188 0 2288 0 
L 134 0 
L 134 116 
Q 428 116 533 170 
Q 638 225 680 312 
Q 722 400 722 744 
L 722 3494 
Q 722 3838 680 3927 
Q 638 4016 531 4069 
Q 425 4122 134 4122 
L 134 4238 
L 2166 4238 
Q 2894 4238 3197 4108 
Q 3500 3978 3675 3720 
Q 3850 3463 3850 3172 
Q 3850 2866 3628 2627 
Q 3406 2388 2847 2247 
z
M 1709 2331 
Q 2153 2331 2364 2431 
Q 2575 2531 2687 2712 
Q 2800 2894 2800 3175 
Q 2800 3456 2689 3636 
Q 2578 3816 2372 3909 
Q 2166 4003 1709 4000 
L 1709 2331 
z
M 1709 2088 
L 1709 728 
L 1706 572 
Q 1706 403 1792 317 
Q 1878 231 2047 231 
Q 2297 231 2508 342 
Q 2719 453 2831 664 
Q 2944 875 2944 1134 
Q 2944 1431 2806 1667 
Q 2669 1903 2428 1997 
Q 2188 2091 1709 2088 
z
" transform="scale(0.015625)"/>
       <path id="TimesNewRomanPS-BoldMT-69" d="M 919 4338 
Q 1122 4338 1262 4195 
Q 1403 4053 1403 3853 
Q 1403 3653 1261 3512 
Q 1119 3372 919 3372 
Q 719 3372 578 3512 
Q 438 3653 438 3853 
Q 438 4053 578 4195 
Q 719 4338 919 4338 
z
M 1356 2922 
L 1356 606 
Q 1356 297 1428 211 
Q 1500 125 1709 113 
L 1709 0 
L 131 0 
L 131 113 
Q 325 119 419 225 
Q 481 297 481 606 
L 481 2313 
Q 481 2622 409 2708 
Q 338 2794 131 2806 
L 131 2922 
L 1356 2922 
z
" transform="scale(0.015625)"/>
       <path id="TimesNewRomanPS-BoldMT-6e" d="M 1409 2922 
L 1409 2544 
Q 1634 2788 1840 2898 
Q 2047 3009 2284 3009 
Q 2569 3009 2756 2851 
Q 2944 2694 3006 2459 
Q 3056 2281 3056 1775 
L 3056 638 
Q 3056 300 3117 217 
Q 3178 134 3372 113 
L 3372 0 
L 1894 0 
L 1894 113 
Q 2059 134 2131 250 
Q 2181 328 2181 638 
L 2181 1938 
Q 2181 2297 2153 2390 
Q 2125 2484 2058 2536 
Q 1991 2588 1909 2588 
Q 1641 2588 1409 2203 
L 1409 638 
Q 1409 309 1470 221 
Q 1531 134 1697 113 
L 1697 0 
L 219 0 
L 219 113 
Q 403 131 481 231 
Q 534 300 534 638 
L 534 2288 
Q 534 2619 473 2700 
Q 413 2781 219 2806 
L 219 2922 
L 1409 2922 
z
" transform="scale(0.015625)"/>
       <path id="TimesNewRomanPS-BoldMT-73" d="M 2063 3003 
L 2109 2006 
L 2003 2006 
Q 1813 2450 1608 2612 
Q 1403 2775 1200 2775 
Q 1072 2775 981 2689 
Q 891 2603 891 2491 
Q 891 2406 953 2328 
Q 1053 2200 1512 1889 
Q 1972 1578 2117 1361 
Q 2263 1144 2263 875 
Q 2263 631 2141 397 
Q 2019 163 1797 37 
Q 1575 -88 1306 -88 
Q 1097 -88 747 44 
Q 653 78 619 78 
Q 516 78 447 -78 
L 344 -78 
L 294 972 
L 400 972 
Q 541 559 786 353 
Q 1031 147 1250 147 
Q 1400 147 1495 239 
Q 1591 331 1591 463 
Q 1591 613 1497 722 
Q 1403 831 1078 1053 
Q 600 1384 459 1559 
Q 253 1816 253 2125 
Q 253 2463 486 2736 
Q 719 3009 1159 3009 
Q 1397 3009 1619 2894 
Q 1703 2847 1756 2847 
Q 1813 2847 1847 2870 
Q 1881 2894 1956 3003 
L 2063 3003 
z
" transform="scale(0.015625)"/>
      </defs>
      <use xlink:href="#TimesNewRomanPS-BoldMT-42"/>
      <use xlink:href="#TimesNewRomanPS-BoldMT-69" transform="translate(66.699219 0)"/>
      <use xlink:href="#TimesNewRomanPS-BoldMT-6e" transform="translate(94.482422 0)"/>
      <use xlink:href="#TimesNewRomanPS-BoldMT-73" transform="translate(150.097656 0)"/>
     </g>
    </g>
   </g>
   <g id="matplotlib.axis_2">
    <g id="ytick_1">
     <g id="line2d_3">
      <defs>
       <path id="m00bc839c12" d="M 0 0 
L 4 0 
" style="stroke: #000000; stroke-width: 0.8"/>
      </defs>
      <g>
       <use xlink:href="#m00bc839c12" x="27.543594" y="97.082738" style="stroke: #000000; stroke-width: 0.8"/>
      </g>
     </g>
     <g id="text_4">
      <!-- −5 -->
      <g transform="translate(15.484844 99.731488) scale(0.08 -0.08)">
       <defs>
        <path id="TimesNewRomanPS-BoldMT-2212" d="M 125 2325 
L 3541 2325 
L 3541 1913 
L 125 1913 
L 125 2325 
z
" transform="scale(0.015625)"/>
        <path id="TimesNewRomanPS-BoldMT-35" d="M 975 4238 
L 2959 4238 
L 2644 3431 
L 975 3431 
L 816 3009 
Q 1894 2969 2475 2472 
Q 2953 2063 2953 1453 
Q 2953 1063 2731 689 
Q 2509 316 2106 114 
Q 1703 -88 1222 -88 
Q 703 -88 425 106 
Q 231 244 231 419 
Q 231 553 332 656 
Q 434 759 569 759 
Q 691 759 816 709 
Q 941 659 1244 447 
Q 1434 316 1572 266 
Q 1669 228 1791 228 
Q 2047 228 2226 415 
Q 2406 603 2406 866 
Q 2406 1416 1856 1759 
Q 1306 2103 469 2103 
Q 384 2103 216 2100 
L 975 4238 
z
" transform="scale(0.015625)"/>
       </defs>
       <use xlink:href="#TimesNewRomanPS-BoldMT-2212"/>
       <use xlink:href="#TimesNewRomanPS-BoldMT-35" transform="translate(56.982422 0)"/>
      </g>
     </g>
    </g>
    <g id="ytick_2">
     <g id="line2d_4">
      <g>
       <use xlink:href="#m00bc839c12" x="27.543594" y="69.093894" style="stroke: #000000; stroke-width: 0.8"/>
      </g>
     </g>
     <g id="text_5">
      <!-- 0 -->
      <g transform="translate(20.043594 71.742644) scale(0.08 -0.08)">
       <defs>
        <path id="TimesNewRomanPS-BoldMT-30" d="M 2966 2119 
Q 2966 1484 2788 934 
Q 2681 597 2501 381 
Q 2322 166 2094 39 
Q 1866 -88 1597 -88 
Q 1291 -88 1044 68 
Q 797 225 606 516 
Q 469 728 366 1081 
Q 231 1559 231 2069 
Q 231 2759 425 3338 
Q 584 3816 909 4070 
Q 1234 4325 1597 4325 
Q 1966 4325 2286 4073 
Q 2606 3822 2756 3397 
Q 2966 2813 2966 2119 
z
M 2003 2125 
Q 2003 3238 1991 3422 
Q 1959 3856 1841 4009 
Q 1763 4109 1588 4109 
Q 1453 4109 1375 4034 
Q 1259 3925 1218 3648 
Q 1178 3372 1178 1719 
Q 1178 819 1241 513 
Q 1288 291 1375 216 
Q 1463 141 1606 141 
Q 1763 141 1841 241 
Q 1972 416 1991 781 
L 2003 2125 
z
" transform="scale(0.015625)"/>
       </defs>
       <use xlink:href="#TimesNewRomanPS-BoldMT-30"/>
      </g>
     </g>
    </g>
    <g id="ytick_3">
     <g id="line2d_5">
      <g>
       <use xlink:href="#m00bc839c12" x="27.543594" y="41.105051" style="stroke: #000000; stroke-width: 0.8"/>
      </g>
     </g>
     <g id="text_6">
      <!-- 5 -->
      <g transform="translate(20.043594 43.753801) scale(0.08 -0.08)">
       <use xlink:href="#TimesNewRomanPS-BoldMT-35"/>
      </g>
     </g>
    </g>
    <g id="text_7">
     <!-- IGT score -->
     <g transform="translate(9.559687 88.308894) rotate(-90) scale(0.09 -0.09)">
      <defs>
       <path id="TimesNewRomanPS-BoldMT-49" d="M 2344 116 
L 2344 0 
L 128 0 
L 128 116 
L 269 116 
Q 453 116 566 181 
Q 647 225 691 331 
Q 725 406 725 725 
L 725 3513 
Q 725 3838 690 3919 
Q 656 4000 551 4061 
Q 447 4122 269 4122 
L 128 4122 
L 128 4238 
L 2344 4238 
L 2344 4122 
L 2203 4122 
Q 2019 4122 1906 4056 
Q 1825 4013 1778 3906 
Q 1744 3831 1744 3513 
L 1744 725 
Q 1744 400 1780 319 
Q 1816 238 1920 177 
Q 2025 116 2203 116 
L 2344 116 
z
" transform="scale(0.015625)"/>
       <path id="TimesNewRomanPS-BoldMT-47" d="M 4416 4334 
L 4416 2841 
L 4300 2841 
Q 4091 3453 3672 3772 
Q 3253 4091 2756 4091 
Q 2281 4091 1965 3823 
Q 1650 3556 1519 3078 
Q 1388 2600 1388 2097 
Q 1388 1488 1531 1028 
Q 1675 569 1995 353 
Q 2316 138 2756 138 
Q 2909 138 3070 170 
Q 3231 203 3400 266 
L 3400 1147 
Q 3400 1397 3365 1470 
Q 3331 1544 3223 1603 
Q 3116 1663 2963 1663 
L 2853 1663 
L 2853 1778 
L 4913 1778 
L 4913 1663 
Q 4678 1647 4586 1598 
Q 4494 1550 4444 1438 
Q 4416 1378 4416 1147 
L 4416 266 
Q 4009 84 3570 -8 
Q 3131 -100 2659 -100 
Q 2056 -100 1657 64 
Q 1259 228 954 495 
Q 650 763 478 1097 
Q 259 1528 259 2063 
Q 259 3019 931 3678 
Q 1603 4338 2622 4338 
Q 2938 4338 3191 4288 
Q 3328 4263 3636 4145 
Q 3944 4028 4000 4028 
Q 4088 4028 4163 4092 
Q 4238 4156 4300 4334 
L 4416 4334 
z
" transform="scale(0.015625)"/>
       <path id="TimesNewRomanPS-BoldMT-54" d="M 4038 4238 
L 4038 3091 
L 3925 3091 
Q 3825 3488 3703 3661 
Q 3581 3834 3369 3938 
Q 3250 3994 2953 3994 
L 2638 3994 
L 2638 725 
Q 2638 400 2673 319 
Q 2709 238 2814 177 
Q 2919 116 3100 116 
L 3241 116 
L 3241 0 
L 1022 0 
L 1022 116 
L 1163 116 
Q 1347 116 1459 181 
Q 1541 225 1588 331 
Q 1622 406 1622 725 
L 1622 3994 
L 1316 3994 
Q 888 3994 694 3813 
Q 422 3559 350 3091 
L 231 3091 
L 231 4238 
L 4038 4238 
z
" transform="scale(0.015625)"/>
       <path id="TimesNewRomanPS-BoldMT-20" transform="scale(0.015625)"/>
       <path id="TimesNewRomanPS-BoldMT-63" d="M 2600 753 
L 2697 678 
Q 2491 291 2183 101 
Q 1875 -88 1528 -88 
Q 944 -88 594 353 
Q 244 794 244 1413 
Q 244 2009 563 2463 
Q 947 3009 1622 3009 
Q 2075 3009 2342 2781 
Q 2609 2553 2609 2272 
Q 2609 2094 2501 1987 
Q 2394 1881 2219 1881 
Q 2034 1881 1914 2003 
Q 1794 2125 1766 2438 
Q 1747 2634 1675 2713 
Q 1603 2791 1506 2791 
Q 1356 2791 1250 2631 
Q 1088 2391 1088 1894 
Q 1088 1481 1219 1104 
Q 1350 728 1578 544 
Q 1750 409 1984 409 
Q 2138 409 2275 481 
Q 2413 553 2600 753 
z
" transform="scale(0.015625)"/>
       <path id="TimesNewRomanPS-BoldMT-6f" d="M 1594 3009 
Q 1975 3009 2303 2812 
Q 2631 2616 2801 2253 
Q 2972 1891 2972 1459 
Q 2972 838 2656 419 
Q 2275 -88 1603 -88 
Q 944 -88 587 375 
Q 231 838 231 1447 
Q 231 2075 595 2542 
Q 959 3009 1594 3009 
z
M 1606 2788 
Q 1447 2788 1333 2667 
Q 1219 2547 1183 2192 
Q 1147 1838 1147 1206 
Q 1147 872 1191 581 
Q 1225 359 1337 243 
Q 1450 128 1594 128 
Q 1734 128 1828 206 
Q 1950 313 1991 503 
Q 2053 800 2053 1703 
Q 2053 2234 1993 2432 
Q 1934 2631 1819 2722 
Q 1738 2788 1606 2788 
z
" transform="scale(0.015625)"/>
       <path id="TimesNewRomanPS-BoldMT-72" d="M 1428 2922 
L 1428 2259 
Q 1719 2713 1937 2861 
Q 2156 3009 2359 3009 
Q 2534 3009 2639 2901 
Q 2744 2794 2744 2597 
Q 2744 2388 2642 2272 
Q 2541 2156 2397 2156 
Q 2231 2156 2109 2262 
Q 1988 2369 1966 2381 
Q 1934 2400 1894 2400 
Q 1803 2400 1722 2331 
Q 1594 2225 1528 2028 
Q 1428 1725 1428 1359 
L 1428 688 
L 1431 513 
Q 1431 334 1453 284 
Q 1491 200 1564 161 
Q 1638 122 1813 113 
L 1813 0 
L 234 0 
L 234 113 
Q 425 128 492 217 
Q 559 306 559 688 
L 559 2303 
Q 559 2553 534 2622 
Q 503 2709 443 2750 
Q 384 2791 234 2806 
L 234 2922 
L 1428 2922 
z
" transform="scale(0.015625)"/>
       <path id="TimesNewRomanPS-BoldMT-65" d="M 2691 1566 
L 1088 1566 
Q 1116 984 1397 647 
Q 1613 388 1916 388 
Q 2103 388 2256 492 
Q 2409 597 2584 869 
L 2691 800 
Q 2453 316 2165 114 
Q 1878 -88 1500 -88 
Q 850 -88 516 413 
Q 247 816 247 1413 
Q 247 2144 642 2576 
Q 1038 3009 1569 3009 
Q 2013 3009 2339 2645 
Q 2666 2281 2691 1566 
z
M 1922 1775 
Q 1922 2278 1867 2465 
Q 1813 2653 1697 2750 
Q 1631 2806 1522 2806 
Q 1359 2806 1256 2647 
Q 1072 2369 1072 1884 
L 1072 1775 
L 1922 1775 
z
" transform="scale(0.015625)"/>
      </defs>
      <use xlink:href="#TimesNewRomanPS-BoldMT-49"/>
      <use xlink:href="#TimesNewRomanPS-BoldMT-47" transform="translate(38.916016 0)"/>
      <use xlink:href="#TimesNewRomanPS-BoldMT-54" transform="translate(116.699219 0)"/>
      <use xlink:href="#TimesNewRomanPS-BoldMT-20" transform="translate(181.648438 0)"/>
      <use xlink:href="#TimesNewRomanPS-BoldMT-73" transform="translate(206.648438 0)"/>
      <use xlink:href="#TimesNewRomanPS-BoldMT-63" transform="translate(245.564453 0)"/>
      <use xlink:href="#TimesNewRomanPS-BoldMT-6f" transform="translate(289.949219 0)"/>
      <use xlink:href="#TimesNewRomanPS-BoldMT-72" transform="translate(339.949219 0)"/>
      <use xlink:href="#TimesNewRomanPS-BoldMT-65" transform="translate(382.583984 0)"/>
     </g>
    </g>
   </g>
   <g id="LineCollection_1">
    <path d="M 36.328594 80.034253 
L 36.328594 60.840464 
" clip-path="url(#ped6cf3efa9)" style="fill: none; stroke: #000000"/>
    <path d="M 59.447017 62.851134 
L 59.447017 43.317419 
" clip-path="url(#ped6cf3efa9)" style="fill: none; stroke: #000000"/>
    <path d="M 82.56544 55.601452 
L 82.56544 36.908544 
" clip-path="url(#ped6cf3efa9)" style="fill: none; stroke: #000000"/>
    <path d="M 105.683863 55.251647 
L 105.683863 37.48226 
" clip-path="url(#ped6cf3efa9)" style="fill: none; stroke: #000000"/>
    <path d="M 128.802285 53.170155 
L 128.802285 35.309447 
" clip-path="url(#ped6cf3efa9)" style="fill: none; stroke: #000000"/>
   </g>
   <g id="LineCollection_2">
    <path d="M 43.264121 90.41935 
L 43.264121 68.256272 
" clip-path="url(#ped6cf3efa9)" style="fill: none; stroke: #000000"/>
    <path d="M 66.382544 71.975037 
L 66.382544 49.419445 
" clip-path="url(#ped6cf3efa9)" style="fill: none; stroke: #000000"/>
    <path d="M 89.500967 65.332051 
L 89.500967 43.74734 
" clip-path="url(#ped6cf3efa9)" style="fill: none; stroke: #000000"/>
    <path d="M 112.619389 53.659296 
L 112.619389 33.140975 
" clip-path="url(#ped6cf3efa9)" style="fill: none; stroke: #000000"/>
    <path d="M 135.737812 57.574481 
L 135.737812 36.950712 
" clip-path="url(#ped6cf3efa9)" style="fill: none; stroke: #000000"/>
   </g>
   <g id="line2d_6">
    <defs>
     <path id="m44de8c952a" d="M 0 1.25 
C 0.331504 1.25 0.649475 1.118292 0.883883 0.883883 
C 1.118292 0.649475 1.25 0.331504 1.25 0 
C 1.25 -0.331504 1.118292 -0.649475 0.883883 -0.883883 
C 0.649475 -1.118292 0.331504 -1.25 0 -1.25 
C -0.331504 -1.25 -0.649475 -1.118292 -0.883883 -0.883883 
C -1.118292 -0.649475 -1.25 -0.331504 -1.25 0 
C -1.25 0.331504 -1.118292 0.649475 -0.883883 0.883883 
C -0.649475 1.118292 -0.331504 1.25 0 1.25 
z
" style="stroke: #000000"/>
    </defs>
    <g clip-path="url(#ped6cf3efa9)">
     <use xlink:href="#m44de8c952a" x="36.328594" y="70.437359" style="stroke: #000000"/>
     <use xlink:href="#m44de8c952a" x="59.447017" y="53.084276" style="stroke: #000000"/>
     <use xlink:href="#m44de8c952a" x="82.56544" y="46.254998" style="stroke: #000000"/>
     <use xlink:href="#m44de8c952a" x="105.683863" y="46.366953" style="stroke: #000000"/>
     <use xlink:href="#m44de8c952a" x="128.802285" y="44.239801" style="stroke: #000000"/>
    </g>
   </g>
   <g id="line2d_7">
    <g clip-path="url(#ped6cf3efa9)">
     <use xlink:href="#m44de8c952a" x="43.264121" y="79.337811" style="stroke: #000000"/>
     <use xlink:href="#m44de8c952a" x="66.382544" y="60.697241" style="stroke: #000000"/>
     <use xlink:href="#m44de8c952a" x="89.500967" y="54.539696" style="stroke: #000000"/>
     <use xlink:href="#m44de8c952a" x="112.619389" y="43.400136" style="stroke: #000000"/>
     <use xlink:href="#m44de8c952a" x="135.737812" y="47.262596" style="stroke: #000000"/>
    </g>
   </g>
   <g id="patch_13">
    <path d="M 27.543594 119.473813 
L 27.543594 18.713976 
" style="fill: none; stroke: #000000; stroke-width: 0.8; stroke-linejoin: miter; stroke-linecap: square"/>
   </g>
   <g id="patch_14">
    <path d="M 27.543594 119.473813 
L 144.522813 119.473813 
" style="fill: none; stroke: #000000; stroke-width: 0.8; stroke-linejoin: miter; stroke-linecap: square"/>
   </g>
   <g id="text_8">
    <!-- A -->
    <g transform="translate(4.14775 10.221875) scale(0.1 -0.1)">
     <defs>
      <path id="TimesNewRomanPS-BoldMT-41" d="M 2663 1206 
L 1166 1206 
L 988 794 
Q 900 588 900 453 
Q 900 275 1044 191 
Q 1128 141 1459 116 
L 1459 0 
L 50 0 
L 50 116 
Q 278 150 425 304 
Q 572 459 788 944 
L 2303 4325 
L 2363 4325 
L 3891 850 
Q 4109 356 4250 228 
Q 4356 131 4550 116 
L 4550 0 
L 2500 0 
L 2500 116 
L 2584 116 
Q 2831 116 2931 184 
Q 3000 234 3000 328 
Q 3000 384 2981 444 
Q 2975 472 2888 678 
L 2663 1206 
z
M 2556 1438 
L 1925 2897 
L 1275 1438 
L 2556 1438 
z
" transform="scale(0.015625)"/>
     </defs>
     <use xlink:href="#TimesNewRomanPS-BoldMT-41"/>
    </g>
   </g>
   <g id="legend_1">
    <g id="patch_15">
     <path d="M 55.930735 99.251313 
L 71.930735 99.251313 
L 71.930735 93.651313 
L 55.930735 93.651313 
z
" style="fill: #054b7c"/>
    </g>
    <g id="text_9">
     <!-- Normal simulated -->
     <g transform="translate(75.930735 99.251313) scale(0.08 -0.08)">
      <defs>
       <path id="TimesNewRomanPS-BoldMT-4e" d="M 1594 4238 
L 3684 1609 
L 3684 3431 
Q 3684 3813 3575 3947 
Q 3425 4128 3072 4122 
L 3072 4238 
L 4472 4238 
L 4472 4122 
Q 4203 4088 4111 4033 
Q 4019 3978 3967 3854 
Q 3916 3731 3916 3431 
L 3916 -97 
L 3809 -97 
L 944 3431 
L 944 738 
Q 944 372 1111 244 
Q 1278 116 1494 116 
L 1594 116 
L 1594 0 
L 91 0 
L 91 116 
Q 441 119 578 259 
Q 716 400 716 738 
L 716 3728 
L 625 3841 
Q 491 4009 387 4062 
Q 284 4116 91 4122 
L 91 4238 
L 1594 4238 
z
" transform="scale(0.015625)"/>
       <path id="TimesNewRomanPS-BoldMT-6d" d="M 1428 2922 
L 1428 2538 
Q 1669 2800 1873 2904 
Q 2078 3009 2322 3009 
Q 2603 3009 2793 2878 
Q 2984 2747 3088 2478 
Q 3338 2759 3567 2884 
Q 3797 3009 4047 3009 
Q 4350 3009 4529 2870 
Q 4709 2731 4779 2517 
Q 4850 2303 4850 1834 
L 4850 638 
Q 4850 300 4911 219 
Q 4972 138 5166 113 
L 5166 0 
L 3656 0 
L 3656 113 
Q 3834 128 3919 250 
Q 3975 334 3975 638 
L 3975 1894 
Q 3975 2284 3944 2390 
Q 3913 2497 3845 2548 
Q 3778 2600 3688 2600 
Q 3553 2600 3415 2501 
Q 3278 2403 3138 2206 
L 3138 638 
Q 3138 322 3191 241 
Q 3263 125 3466 113 
L 3466 0 
L 1953 0 
L 1953 113 
Q 2075 119 2145 173 
Q 2216 228 2239 304 
Q 2263 381 2263 638 
L 2263 1894 
Q 2263 2291 2231 2391 
Q 2200 2491 2126 2547 
Q 2053 2603 1969 2603 
Q 1844 2603 1741 2538 
Q 1594 2441 1428 2206 
L 1428 638 
Q 1428 328 1489 229 
Q 1550 131 1744 113 
L 1744 0 
L 238 0 
L 238 113 
Q 422 131 500 231 
Q 553 300 553 638 
L 553 2288 
Q 553 2619 492 2700 
Q 431 2781 238 2806 
L 238 2922 
L 1428 2922 
z
" transform="scale(0.015625)"/>
       <path id="TimesNewRomanPS-BoldMT-61" d="M 1828 431 
Q 1294 -41 869 -41 
Q 619 -41 453 123 
Q 288 288 288 534 
Q 288 869 575 1136 
Q 863 1403 1828 1847 
L 1828 2141 
Q 1828 2472 1792 2558 
Q 1756 2644 1656 2708 
Q 1556 2772 1431 2772 
Q 1228 2772 1097 2681 
Q 1016 2625 1016 2550 
Q 1016 2484 1103 2388 
Q 1222 2253 1222 2128 
Q 1222 1975 1108 1867 
Q 994 1759 809 1759 
Q 613 1759 480 1878 
Q 347 1997 347 2156 
Q 347 2381 525 2586 
Q 703 2791 1022 2900 
Q 1341 3009 1684 3009 
Q 2100 3009 2342 2832 
Q 2584 2656 2656 2450 
Q 2700 2319 2700 1847 
L 2700 713 
Q 2700 513 2715 461 
Q 2731 409 2762 384 
Q 2794 359 2834 359 
Q 2916 359 3000 475 
L 3094 400 
Q 2938 169 2770 64 
Q 2603 -41 2391 -41 
Q 2141 -41 2000 76 
Q 1859 194 1828 431 
z
M 1828 659 
L 1828 1638 
Q 1450 1416 1266 1163 
Q 1144 994 1144 822 
Q 1144 678 1247 569 
Q 1325 484 1466 484 
Q 1622 484 1828 659 
z
" transform="scale(0.015625)"/>
       <path id="TimesNewRomanPS-BoldMT-6c" d="M 1359 4238 
L 1359 606 
Q 1359 297 1431 211 
Q 1503 125 1713 113 
L 1713 0 
L 134 0 
L 134 113 
Q 328 119 422 225 
Q 484 297 484 606 
L 484 3631 
Q 484 3938 412 4023 
Q 341 4109 134 4122 
L 134 4238 
L 1359 4238 
z
" transform="scale(0.015625)"/>
       <path id="TimesNewRomanPS-BoldMT-75" d="M 3038 2922 
L 3038 634 
Q 3038 300 3100 217 
Q 3163 134 3353 113 
L 3353 0 
L 2163 0 
L 2163 391 
Q 1953 141 1743 26 
Q 1534 -88 1275 -88 
Q 1028 -88 836 64 
Q 644 216 578 419 
Q 513 622 513 1128 
L 513 2288 
Q 513 2619 452 2700 
Q 391 2781 197 2806 
L 197 2922 
L 1388 2922 
L 1388 925 
Q 1388 613 1417 522 
Q 1447 431 1511 384 
Q 1575 338 1659 338 
Q 1772 338 1863 397 
Q 1988 478 2163 725 
L 2163 2288 
Q 2163 2619 2102 2700 
Q 2041 2781 1847 2806 
L 1847 2922 
L 3038 2922 
z
" transform="scale(0.015625)"/>
       <path id="TimesNewRomanPS-BoldMT-74" d="M 1375 3991 
L 1375 2922 
L 2069 2922 
L 2069 2613 
L 1375 2613 
L 1375 809 
Q 1375 556 1398 482 
Q 1422 409 1481 364 
Q 1541 319 1591 319 
Q 1794 319 1975 628 
L 2069 559 
Q 1816 -41 1247 -41 
Q 969 -41 776 114 
Q 584 269 531 459 
Q 500 566 500 1034 
L 500 2613 
L 119 2613 
L 119 2722 
Q 513 3000 789 3306 
Q 1066 3613 1272 3991 
L 1375 3991 
z
" transform="scale(0.015625)"/>
       <path id="TimesNewRomanPS-BoldMT-64" d="M 3056 4238 
L 3056 875 
Q 3056 534 3075 472 
Q 3100 369 3170 319 
Q 3241 269 3416 256 
L 3416 153 
L 2181 -88 
L 2181 375 
Q 1959 106 1786 9 
Q 1613 -88 1394 -88 
Q 834 -88 509 413 
Q 247 819 247 1409 
Q 247 1881 409 2254 
Q 572 2628 855 2818 
Q 1138 3009 1463 3009 
Q 1672 3009 1834 2928 
Q 1997 2847 2181 2644 
L 2181 3525 
Q 2181 3859 2153 3928 
Q 2116 4019 2041 4062 
Q 1966 4106 1759 4106 
L 1759 4238 
L 3056 4238 
z
M 2181 2256 
Q 1950 2700 1616 2700 
Q 1500 2700 1425 2638 
Q 1309 2541 1236 2297 
Q 1163 2053 1163 1550 
Q 1163 997 1244 731 
Q 1325 466 1466 347 
Q 1538 288 1663 288 
Q 1938 288 2181 719 
L 2181 2256 
z
" transform="scale(0.015625)"/>
      </defs>
      <use xlink:href="#TimesNewRomanPS-BoldMT-4e"/>
      <use xlink:href="#TimesNewRomanPS-BoldMT-6f" transform="translate(72.216797 0)"/>
      <use xlink:href="#TimesNewRomanPS-BoldMT-72" transform="translate(122.216797 0)"/>
      <use xlink:href="#TimesNewRomanPS-BoldMT-6d" transform="translate(166.601562 0)"/>
      <use xlink:href="#TimesNewRomanPS-BoldMT-61" transform="translate(249.902344 0)"/>
      <use xlink:href="#TimesNewRomanPS-BoldMT-6c" transform="translate(299.902344 0)"/>
      <use xlink:href="#TimesNewRomanPS-BoldMT-20" transform="translate(327.685547 0)"/>
      <use xlink:href="#TimesNewRomanPS-BoldMT-73" transform="translate(352.685547 0)"/>
      <use xlink:href="#TimesNewRomanPS-BoldMT-69" transform="translate(391.601562 0)"/>
      <use xlink:href="#TimesNewRomanPS-BoldMT-6d" transform="translate(419.384766 0)"/>
      <use xlink:href="#TimesNewRomanPS-BoldMT-75" transform="translate(502.685547 0)"/>
      <use xlink:href="#TimesNewRomanPS-BoldMT-6c" transform="translate(558.300781 0)"/>
      <use xlink:href="#TimesNewRomanPS-BoldMT-61" transform="translate(586.083984 0)"/>
      <use xlink:href="#TimesNewRomanPS-BoldMT-74" transform="translate(636.083984 0)"/>
      <use xlink:href="#TimesNewRomanPS-BoldMT-65" transform="translate(669.384766 0)"/>
      <use xlink:href="#TimesNewRomanPS-BoldMT-64" transform="translate(713.769531 0)"/>
     </g>
    </g>
    <g id="patch_16">
     <path d="M 55.930735 110.562563 
L 71.930735 110.562563 
L 71.930735 104.962563 
L 55.930735 104.962563 
z
" style="fill: #4395d0"/>
    </g>
    <g id="text_10">
     <!-- Normal experimental -->
     <g transform="translate(75.930735 110.562563) scale(0.08 -0.08)">
      <defs>
       <path id="TimesNewRomanPS-BoldMT-78" d="M 1944 1791 
L 2450 828 
Q 2713 325 2866 191 
Q 2950 119 3097 113 
L 3097 0 
L 1469 0 
L 1469 113 
Q 1659 128 1704 162 
Q 1750 197 1750 256 
Q 1750 344 1650 531 
L 1397 1006 
L 1181 691 
Q 1034 475 1016 434 
Q 991 375 991 328 
Q 991 256 1020 207 
Q 1050 159 1101 136 
Q 1153 113 1291 113 
L 1291 0 
L 147 0 
L 147 113 
Q 359 113 536 230 
Q 713 347 1050 844 
L 1291 1200 
L 788 2131 
Q 541 2588 419 2691 
Q 297 2794 147 2806 
L 147 2922 
L 1766 2922 
L 1766 2806 
L 1681 2803 
L 1519 2747 
Q 1494 2725 1494 2675 
Q 1494 2628 1509 2578 
Q 1519 2556 1597 2409 
L 1825 1984 
L 1944 2153 
Q 2194 2497 2194 2634 
Q 2194 2700 2139 2745 
Q 2084 2791 1944 2806 
L 1944 2922 
L 2978 2922 
L 2978 2806 
Q 2788 2800 2622 2689 
Q 2456 2578 2250 2259 
L 1944 1791 
z
" transform="scale(0.015625)"/>
       <path id="TimesNewRomanPS-BoldMT-70" d="M 1347 297 
L 1347 -791 
Q 1347 -1016 1383 -1097 
Q 1419 -1178 1494 -1215 
Q 1569 -1253 1788 -1253 
L 1788 -1369 
L 122 -1369 
L 122 -1253 
Q 316 -1247 409 -1144 
Q 472 -1072 472 -772 
L 472 2313 
Q 472 2622 400 2708 
Q 328 2794 122 2806 
L 122 2922 
L 1347 2922 
L 1347 2538 
Q 1500 2763 1659 2863 
Q 1888 3009 2156 3009 
Q 2478 3009 2742 2806 
Q 3006 2603 3143 2245 
Q 3281 1888 3281 1475 
Q 3281 1031 3139 664 
Q 2997 297 2726 104 
Q 2456 -88 2125 -88 
Q 1884 -88 1675 19 
Q 1519 100 1347 297 
z
M 1347 613 
Q 1616 231 1922 231 
Q 2091 231 2200 409 
Q 2363 672 2363 1409 
Q 2363 2166 2184 2444 
Q 2066 2628 1866 2628 
Q 1550 2628 1347 2172 
L 1347 613 
z
" transform="scale(0.015625)"/>
      </defs>
      <use xlink:href="#TimesNewRomanPS-BoldMT-4e"/>
      <use xlink:href="#TimesNewRomanPS-BoldMT-6f" transform="translate(72.216797 0)"/>
      <use xlink:href="#TimesNewRomanPS-BoldMT-72" transform="translate(122.216797 0)"/>
      <use xlink:href="#TimesNewRomanPS-BoldMT-6d" transform="translate(166.601562 0)"/>
      <use xlink:href="#TimesNewRomanPS-BoldMT-61" transform="translate(249.902344 0)"/>
      <use xlink:href="#TimesNewRomanPS-BoldMT-6c" transform="translate(299.902344 0)"/>
      <use xlink:href="#TimesNewRomanPS-BoldMT-20" transform="translate(327.685547 0)"/>
      <use xlink:href="#TimesNewRomanPS-BoldMT-65" transform="translate(352.685547 0)"/>
      <use xlink:href="#TimesNewRomanPS-BoldMT-78" transform="translate(397.070312 0)"/>
      <use xlink:href="#TimesNewRomanPS-BoldMT-70" transform="translate(447.070312 0)"/>
      <use xlink:href="#TimesNewRomanPS-BoldMT-65" transform="translate(502.685547 0)"/>
      <use xlink:href="#TimesNewRomanPS-BoldMT-72" transform="translate(547.070312 0)"/>
      <use xlink:href="#TimesNewRomanPS-BoldMT-69" transform="translate(591.455078 0)"/>
      <use xlink:href="#TimesNewRomanPS-BoldMT-6d" transform="translate(619.238281 0)"/>
      <use xlink:href="#TimesNewRomanPS-BoldMT-65" transform="translate(702.539062 0)"/>
      <use xlink:href="#TimesNewRomanPS-BoldMT-6e" transform="translate(746.923828 0)"/>
      <use xlink:href="#TimesNewRomanPS-BoldMT-74" transform="translate(802.539062 0)"/>
      <use xlink:href="#TimesNewRomanPS-BoldMT-61" transform="translate(835.839844 0)"/>
      <use xlink:href="#TimesNewRomanPS-BoldMT-6c" transform="translate(885.839844 0)"/>
     </g>
    </g>
   </g>
  </g>
  <g id="axes_2">
   <g id="patch_17">
    <path d="M 201.627228 119.473813 
L 357.59952 119.473813 
L 357.59952 18.713976 
L 201.627228 18.713976 
z
" style="fill: #ffffff"/>
   </g>
   <g id="patch_18">
    <path d="M 208.716878 69.093894 
L 217.964247 69.093894 
L 217.964247 84.991557 
L 208.716878 84.991557 
z
" clip-path="url(#p68eadb5e17)" style="fill: #9f0d03"/>
   </g>
   <g id="patch_19">
    <path d="M 239.541441 69.093894 
L 248.78881 69.093894 
L 248.78881 91.820835 
L 239.541441 91.820835 
z
" clip-path="url(#p68eadb5e17)" style="fill: #9f0d03"/>
   </g>
   <g id="patch_20">
    <path d="M 270.366005 69.093894 
L 279.613374 69.093894 
L 279.613374 74.691663 
L 270.366005 74.691663 
z
" clip-path="url(#p68eadb5e17)" style="fill: #9f0d03"/>
   </g>
   <g id="patch_21">
    <path d="M 301.190569 69.093894 
L 310.437938 69.093894 
L 310.437938 69.877582 
L 301.190569 69.877582 
z
" clip-path="url(#p68eadb5e17)" style="fill: #9f0d03"/>
   </g>
   <g id="patch_22">
    <path d="M 332.015132 69.093894 
L 341.262501 69.093894 
L 341.262501 73.124288 
L 332.015132 73.124288 
z
" clip-path="url(#p68eadb5e17)" style="fill: #9f0d03"/>
   </g>
   <g id="patch_23">
    <path d="M 217.964247 69.093894 
L 227.211616 69.093894 
L 227.211616 88.686085 
L 217.964247 88.686085 
z
" clip-path="url(#p68eadb5e17)" style="fill: #dd4f45"/>
   </g>
   <g id="patch_24">
    <path d="M 248.78881 69.093894 
L 258.036179 69.093894 
L 258.036179 84.487758 
L 248.78881 84.487758 
z
" clip-path="url(#p68eadb5e17)" style="fill: #dd4f45"/>
   </g>
   <g id="patch_25">
    <path d="M 279.613374 69.093894 
L 288.860743 69.093894 
L 288.860743 80.289432 
L 279.613374 80.289432 
z
" clip-path="url(#p68eadb5e17)" style="fill: #dd4f45"/>
   </g>
   <g id="patch_26">
    <path d="M 310.437938 69.093894 
L 319.685307 69.093894 
L 319.685307 69.373783 
L 310.437938 69.373783 
z
" clip-path="url(#p68eadb5e17)" style="fill: #dd4f45"/>
   </g>
   <g id="patch_27">
    <path d="M 341.262501 69.093894 
L 350.50987 69.093894 
L 350.50987 84.487758 
L 341.262501 84.487758 
z
" clip-path="url(#p68eadb5e17)" style="fill: #dd4f45"/>
   </g>
   <g id="matplotlib.axis_3">
    <g id="xtick_3">
     <g id="line2d_8">
      <g>
       <use xlink:href="#m49a39c2d6d" x="213.340562" y="119.473813" style="stroke: #000000; stroke-width: 0.8"/>
      </g>
     </g>
     <g id="text_11">
      <!-- 1 -->
      <g transform="translate(211.340562 128.271313) scale(0.08 -0.08)">
       <defs>
        <path id="TimesNewRomanPS-BoldMT-31" d="M 2084 4325 
L 2084 859 
Q 2084 469 2118 361 
Q 2153 253 2262 184 
Q 2372 116 2613 116 
L 2709 116 
L 2709 0 
L 478 0 
L 478 116 
L 591 116 
Q 863 116 978 178 
Q 1094 241 1134 350 
Q 1175 459 1175 859 
L 1175 3056 
Q 1175 3350 1147 3423 
Q 1119 3497 1042 3548 
Q 966 3600 866 3600 
Q 706 3600 478 3500 
L 422 3613 
L 1981 4325 
L 2084 4325 
z
" transform="scale(0.015625)"/>
       </defs>
       <use xlink:href="#TimesNewRomanPS-BoldMT-31"/>
      </g>
     </g>
    </g>
    <g id="xtick_4">
     <g id="line2d_9">
      <g>
       <use xlink:href="#m49a39c2d6d" x="244.165126" y="119.473813" style="stroke: #000000; stroke-width: 0.8"/>
      </g>
     </g>
     <g id="text_12">
      <!-- 2 -->
      <g transform="translate(242.165126 128.271313) scale(0.08 -0.08)">
       <use xlink:href="#TimesNewRomanPS-BoldMT-32"/>
      </g>
     </g>
    </g>
    <g id="xtick_5">
     <g id="line2d_10">
      <g>
       <use xlink:href="#m49a39c2d6d" x="274.989689" y="119.473813" style="stroke: #000000; stroke-width: 0.8"/>
      </g>
     </g>
     <g id="text_13">
      <!-- 3 -->
      <g transform="translate(272.989689 128.271313) scale(0.08 -0.08)">
       <defs>
        <path id="TimesNewRomanPS-BoldMT-33" d="M 947 2125 
L 947 2234 
Q 1303 2338 1440 2427 
Q 1578 2516 1678 2698 
Q 1778 2881 1778 3069 
Q 1778 3328 1589 3514 
Q 1400 3700 1119 3700 
Q 681 3700 375 3238 
L 259 3278 
Q 484 3800 836 4062 
Q 1188 4325 1619 4325 
Q 2059 4325 2345 4056 
Q 2631 3788 2631 3428 
Q 2631 3194 2498 2976 
Q 2366 2759 2081 2594 
Q 2447 2416 2639 2155 
Q 2831 1894 2831 1500 
Q 2831 838 2351 373 
Q 1872 -91 1066 -91 
Q 528 -91 281 88 
Q 103 213 103 409 
Q 103 553 206 654 
Q 309 756 444 756 
Q 547 756 638 713 
Q 688 688 992 439 
Q 1297 191 1563 191 
Q 1794 191 1959 373 
Q 2125 556 2125 838 
Q 2125 1266 1825 1627 
Q 1525 1988 947 2125 
z
" transform="scale(0.015625)"/>
       </defs>
       <use xlink:href="#TimesNewRomanPS-BoldMT-33"/>
      </g>
     </g>
    </g>
    <g id="xtick_6">
     <g id="line2d_11">
      <g>
       <use xlink:href="#m49a39c2d6d" x="305.814253" y="119.473813" style="stroke: #000000; stroke-width: 0.8"/>
      </g>
     </g>
     <g id="text_14">
      <!-- 4 -->
      <g transform="translate(303.814253 128.271313) scale(0.08 -0.08)">
       <use xlink:href="#TimesNewRomanPS-BoldMT-34"/>
      </g>
     </g>
    </g>
    <g id="xtick_7">
     <g id="line2d_12">
      <g>
       <use xlink:href="#m49a39c2d6d" x="336.638817" y="119.473813" style="stroke: #000000; stroke-width: 0.8"/>
      </g>
     </g>
     <g id="text_15">
      <!-- 5 -->
      <g transform="translate(334.638817 128.271313) scale(0.08 -0.08)">
       <use xlink:href="#TimesNewRomanPS-BoldMT-35"/>
      </g>
     </g>
    </g>
    <g id="text_16">
     <!-- Bins -->
     <g transform="translate(271.107671 139.94225) scale(0.09 -0.09)">
      <use xlink:href="#TimesNewRomanPS-BoldMT-42"/>
      <use xlink:href="#TimesNewRomanPS-BoldMT-69" transform="translate(66.699219 0)"/>
      <use xlink:href="#TimesNewRomanPS-BoldMT-6e" transform="translate(94.482422 0)"/>
      <use xlink:href="#TimesNewRomanPS-BoldMT-73" transform="translate(150.097656 0)"/>
     </g>
    </g>
   </g>
   <g id="matplotlib.axis_4">
    <g id="ytick_4">
     <g id="line2d_13">
      <g>
       <use xlink:href="#m00bc839c12" x="201.627228" y="97.082738" style="stroke: #000000; stroke-width: 0.8"/>
      </g>
     </g>
     <g id="text_17">
      <!-- −5 -->
      <g transform="translate(189.568478 99.731488) scale(0.08 -0.08)">
       <use xlink:href="#TimesNewRomanPS-BoldMT-2212"/>
       <use xlink:href="#TimesNewRomanPS-BoldMT-35" transform="translate(56.982422 0)"/>
      </g>
     </g>
    </g>
    <g id="ytick_5">
     <g id="line2d_14">
      <g>
       <use xlink:href="#m00bc839c12" x="201.627228" y="69.093894" style="stroke: #000000; stroke-width: 0.8"/>
      </g>
     </g>
     <g id="text_18">
      <!-- 0 -->
      <g transform="translate(194.127228 71.742644) scale(0.08 -0.08)">
       <use xlink:href="#TimesNewRomanPS-BoldMT-30"/>
      </g>
     </g>
    </g>
    <g id="ytick_6">
     <g id="line2d_15">
      <g>
       <use xlink:href="#m00bc839c12" x="201.627228" y="41.105051" style="stroke: #000000; stroke-width: 0.8"/>
      </g>
     </g>
     <g id="text_19">
      <!-- 5 -->
      <g transform="translate(194.127228 43.753801) scale(0.08 -0.08)">
       <use xlink:href="#TimesNewRomanPS-BoldMT-35"/>
      </g>
     </g>
    </g>
    <g id="text_20">
     <!-- IGT score -->
     <g transform="translate(183.643322 88.308894) rotate(-90) scale(0.09 -0.09)">
      <use xlink:href="#TimesNewRomanPS-BoldMT-49"/>
      <use xlink:href="#TimesNewRomanPS-BoldMT-47" transform="translate(38.916016 0)"/>
      <use xlink:href="#TimesNewRomanPS-BoldMT-54" transform="translate(116.699219 0)"/>
      <use xlink:href="#TimesNewRomanPS-BoldMT-20" transform="translate(181.648438 0)"/>
      <use xlink:href="#TimesNewRomanPS-BoldMT-73" transform="translate(206.648438 0)"/>
      <use xlink:href="#TimesNewRomanPS-BoldMT-63" transform="translate(245.564453 0)"/>
      <use xlink:href="#TimesNewRomanPS-BoldMT-6f" transform="translate(289.949219 0)"/>
      <use xlink:href="#TimesNewRomanPS-BoldMT-72" transform="translate(339.949219 0)"/>
      <use xlink:href="#TimesNewRomanPS-BoldMT-65" transform="translate(382.583984 0)"/>
     </g>
    </g>
   </g>
   <g id="LineCollection_3">
    <path d="M 213.340562 93.333456 
L 213.340562 76.649658 
" clip-path="url(#p68eadb5e17)" style="fill: none; stroke: #000000"/>
    <path d="M 244.165126 99.141438 
L 244.165126 84.500232 
" clip-path="url(#p68eadb5e17)" style="fill: none; stroke: #000000"/>
    <path d="M 274.989689 80.093765 
L 274.989689 69.289561 
" clip-path="url(#p68eadb5e17)" style="fill: none; stroke: #000000"/>
    <path d="M 305.814253 75.236754 
L 305.814253 64.51841 
" clip-path="url(#p68eadb5e17)" style="fill: none; stroke: #000000"/>
    <path d="M 336.638817 78.122277 
L 336.638817 68.126299 
" clip-path="url(#p68eadb5e17)" style="fill: none; stroke: #000000"/>
   </g>
   <g id="LineCollection_4">
    <path d="M 222.587931 103.91624 
L 222.587931 73.45593 
" clip-path="url(#p68eadb5e17)" style="fill: none; stroke: #000000"/>
    <path d="M 253.412495 97.85329 
L 253.412495 71.122226 
" clip-path="url(#p68eadb5e17)" style="fill: none; stroke: #000000"/>
    <path d="M 284.237059 90.152276 
L 284.237059 70.426587 
" clip-path="url(#p68eadb5e17)" style="fill: none; stroke: #000000"/>
    <path d="M 315.061622 79.158248 
L 315.061622 59.589318 
" clip-path="url(#p68eadb5e17)" style="fill: none; stroke: #000000"/>
    <path d="M 345.886186 93.612796 
L 345.886186 75.362721 
" clip-path="url(#p68eadb5e17)" style="fill: none; stroke: #000000"/>
   </g>
   <g id="line2d_16">
    <g clip-path="url(#p68eadb5e17)">
     <use xlink:href="#m44de8c952a" x="213.340562" y="84.991557" style="stroke: #000000"/>
     <use xlink:href="#m44de8c952a" x="244.165126" y="91.820835" style="stroke: #000000"/>
     <use xlink:href="#m44de8c952a" x="274.989689" y="74.691663" style="stroke: #000000"/>
     <use xlink:href="#m44de8c952a" x="305.814253" y="69.877582" style="stroke: #000000"/>
     <use xlink:href="#m44de8c952a" x="336.638817" y="73.124288" style="stroke: #000000"/>
    </g>
   </g>
   <g id="line2d_17">
    <g clip-path="url(#p68eadb5e17)">
     <use xlink:href="#m44de8c952a" x="222.587931" y="88.686085" style="stroke: #000000"/>
     <use xlink:href="#m44de8c952a" x="253.412495" y="84.487758" style="stroke: #000000"/>
     <use xlink:href="#m44de8c952a" x="284.237059" y="80.289432" style="stroke: #000000"/>
     <use xlink:href="#m44de8c952a" x="315.061622" y="69.373783" style="stroke: #000000"/>
     <use xlink:href="#m44de8c952a" x="345.886186" y="84.487758" style="stroke: #000000"/>
    </g>
   </g>
   <g id="patch_28">
    <path d="M 201.627228 119.473813 
L 201.627228 18.713976 
" style="fill: none; stroke: #000000; stroke-width: 0.8; stroke-linejoin: miter; stroke-linecap: square"/>
   </g>
   <g id="patch_29">
    <path d="M 201.627228 119.473813 
L 357.59952 119.473813 
" style="fill: none; stroke: #000000; stroke-width: 0.8; stroke-linejoin: miter; stroke-linecap: square"/>
   </g>
   <g id="text_21">
    <!-- B -->
    <g transform="translate(170.43277 10.221875) scale(0.1 -0.1)">
     <use xlink:href="#TimesNewRomanPS-BoldMT-42"/>
    </g>
   </g>
   <g id="legend_2">
    <g id="patch_30">
     <path d="M 272.86077 41.589959 
L 288.86077 41.589959 
L 288.86077 35.989959 
L 272.86077 35.989959 
z
" style="fill: #9f0d03"/>
    </g>
    <g id="text_22">
     <!-- PD simulated -->
     <g transform="translate(292.86077 41.589959) scale(0.08 -0.08)">
      <defs>
       <path id="TimesNewRomanPS-BoldMT-50" d="M 1728 1919 
L 1728 744 
Q 1728 400 1770 311 
Q 1813 222 1920 169 
Q 2028 116 2316 116 
L 2316 0 
L 163 0 
L 163 116 
Q 456 116 561 170 
Q 666 225 708 312 
Q 750 400 750 744 
L 750 3494 
Q 750 3838 708 3927 
Q 666 4016 559 4069 
Q 453 4122 163 4122 
L 163 4238 
L 2009 4238 
Q 2922 4238 3319 3913 
Q 3716 3588 3716 3100 
Q 3716 2688 3459 2394 
Q 3203 2100 2753 1994 
Q 2450 1919 1728 1919 
z
M 1728 3994 
L 1728 2163 
Q 1831 2156 1884 2156 
Q 2266 2156 2472 2382 
Q 2678 2609 2678 3084 
Q 2678 3556 2472 3775 
Q 2266 3994 1856 3994 
L 1728 3994 
z
" transform="scale(0.015625)"/>
       <path id="TimesNewRomanPS-BoldMT-44" d="M 84 0 
L 84 116 
L 225 116 
Q 409 116 507 173 
Q 606 231 653 331 
Q 681 397 681 725 
L 681 3513 
Q 681 3838 647 3919 
Q 613 4000 508 4061 
Q 403 4122 225 4122 
L 84 4122 
L 84 4238 
L 1981 4238 
Q 2741 4238 3203 4031 
Q 3769 3778 4061 3265 
Q 4353 2753 4353 2106 
Q 4353 1659 4209 1282 
Q 4066 906 3837 661 
Q 3609 416 3311 267 
Q 3013 119 2581 38 
Q 2391 0 1981 0 
L 84 0 
z
M 1700 3997 
L 1700 691 
Q 1700 428 1725 368 
Q 1750 309 1809 278 
Q 1894 231 2053 231 
Q 2575 231 2850 588 
Q 3225 1069 3225 2081 
Q 3225 2897 2969 3384 
Q 2766 3766 2447 3903 
Q 2222 4000 1700 3997 
z
" transform="scale(0.015625)"/>
      </defs>
      <use xlink:href="#TimesNewRomanPS-BoldMT-50"/>
      <use xlink:href="#TimesNewRomanPS-BoldMT-44" transform="translate(61.083984 0)"/>
      <use xlink:href="#TimesNewRomanPS-BoldMT-20" transform="translate(133.300781 0)"/>
      <use xlink:href="#TimesNewRomanPS-BoldMT-73" transform="translate(158.300781 0)"/>
      <use xlink:href="#TimesNewRomanPS-BoldMT-69" transform="translate(197.216797 0)"/>
      <use xlink:href="#TimesNewRomanPS-BoldMT-6d" transform="translate(225 0)"/>
      <use xlink:href="#TimesNewRomanPS-BoldMT-75" transform="translate(308.300781 0)"/>
      <use xlink:href="#TimesNewRomanPS-BoldMT-6c" transform="translate(363.916016 0)"/>
      <use xlink:href="#TimesNewRomanPS-BoldMT-61" transform="translate(391.699219 0)"/>
      <use xlink:href="#TimesNewRomanPS-BoldMT-74" transform="translate(441.699219 0)"/>
      <use xlink:href="#TimesNewRomanPS-BoldMT-65" transform="translate(475 0)"/>
      <use xlink:href="#TimesNewRomanPS-BoldMT-64" transform="translate(519.384766 0)"/>
     </g>
    </g>
    <g id="patch_31">
     <path d="M 272.86077 52.901209 
L 288.86077 52.901209 
L 288.86077 47.301209 
L 272.86077 47.301209 
z
" style="fill: #dd4f45"/>
    </g>
    <g id="text_23">
     <!-- PD experimental -->
     <g transform="translate(292.86077 52.901209) scale(0.08 -0.08)">
      <use xlink:href="#TimesNewRomanPS-BoldMT-50"/>
      <use xlink:href="#TimesNewRomanPS-BoldMT-44" transform="translate(61.083984 0)"/>
      <use xlink:href="#TimesNewRomanPS-BoldMT-20" transform="translate(133.300781 0)"/>
      <use xlink:href="#TimesNewRomanPS-BoldMT-65" transform="translate(158.300781 0)"/>
      <use xlink:href="#TimesNewRomanPS-BoldMT-78" transform="translate(202.685547 0)"/>
      <use xlink:href="#TimesNewRomanPS-BoldMT-70" transform="translate(252.685547 0)"/>
      <use xlink:href="#TimesNewRomanPS-BoldMT-65" transform="translate(308.300781 0)"/>
      <use xlink:href="#TimesNewRomanPS-BoldMT-72" transform="translate(352.685547 0)"/>
      <use xlink:href="#TimesNewRomanPS-BoldMT-69" transform="translate(397.070312 0)"/>
      <use xlink:href="#TimesNewRomanPS-BoldMT-6d" transform="translate(424.853516 0)"/>
      <use xlink:href="#TimesNewRomanPS-BoldMT-65" transform="translate(508.154297 0)"/>
      <use xlink:href="#TimesNewRomanPS-BoldMT-6e" transform="translate(552.539062 0)"/>
      <use xlink:href="#TimesNewRomanPS-BoldMT-74" transform="translate(608.154297 0)"/>
      <use xlink:href="#TimesNewRomanPS-BoldMT-61" transform="translate(641.455078 0)"/>
      <use xlink:href="#TimesNewRomanPS-BoldMT-6c" transform="translate(691.455078 0)"/>
     </g>
    </g>
   </g>
  </g>
 </g>
 <defs>
  <clipPath id="ped6cf3efa9">
   <rect x="27.543594" y="18.713976" width="116.979219" height="100.759837"/>
  </clipPath>
  <clipPath id="p68eadb5e17">
   <rect x="201.627228" y="18.713976" width="155.972292" height="100.759837"/>
  </clipPath>
 </defs>
</svg>
